<svg version="1.1" id="Layer_1" xmlns="http://www.w3.org/2000/svg" xmlns:xlink="http://www.w3.org/1999/xlink" x="0px" y="0px"
	 width="100%" viewBox="0 0 1024 640" enable-background="new 0 0 1024 640" xml:space="preserve">
<path fill="#4FA37E" opacity="1.000000" stroke="none" 
	d="
M358.955994,407.092163 
	C371.717926,376.134918 390.131317,349.003723 409.800964,322.682953 
	C422.573914,305.590973 437.633301,290.682343 456.401337,280.228302 
	C492.381927,260.186676 528.073120,261.697052 562.882263,283.304718 
	C579.641052,293.707672 593.200928,307.702393 604.981567,323.409363 
	C623.709045,348.378418 640.910889,374.328979 653.632935,402.944611 
	C660.867737,419.217834 665.507080,436.156525 663.544800,454.295990 
	C661.152405,476.411163 649.848206,492.728333 631.297546,504.504883 
	C603.713623,522.016113 573.843079,526.667114 542.185181,520.007019 
	C517.461182,514.805664 493.076447,516.009644 468.389404,520.672180 
	C432.889404,527.376953 400.393066,519.791626 372.696838,496.062927 
	C355.339539,481.192078 349.787170,461.204529 351.400055,438.897217 
	C352.186768,428.016815 354.803406,417.570709 358.955994,407.092163 
M579.396118,334.088287 
	C571.978027,325.029999 563.710327,316.835632 554.385742,309.745117 
	C533.540588,293.894257 510.482178,288.692688 485.183502,296.270538 
	C467.896851,301.448486 454.466553,312.687958 442.529419,325.722290 
	C423.174652,346.856018 407.963776,370.928284 393.971069,395.787567 
	C387.260773,407.709015 381.637909,420.136139 378.724182,433.642090 
	C374.123901,454.965240 380.235168,470.850189 397.999817,482.451965 
	C416.700989,494.665344 437.554504,499.138733 459.183075,495.039703 
	C489.860199,489.225769 520.175842,487.933167 550.856750,494.465546 
	C574.736328,499.549805 597.243347,495.326141 617.642395,481.643433 
	C631.737000,472.189362 639.127380,459.071991 637.424133,441.785461 
	C636.388550,431.274567 633.228516,421.243164 628.682312,411.710999 
	C615.497498,384.066559 598.619690,358.748688 579.396118,334.088287 
z"/>
<path fill="#4FA37E" opacity="1.000000" stroke="none" 
	d="
M400.297852,138.366074 
	C416.354828,118.491425 436.952332,112.598877 458.066528,122.124886 
	C472.487549,128.631195 481.518158,140.520584 487.709198,154.597427 
	C500.453522,183.574799 498.841858,211.973862 483.029602,239.353378 
	C475.588379,252.238205 465.128235,261.793365 449.880005,264.396667 
	C431.591827,267.519012 417.232849,259.863800 405.870239,246.376999 
	C381.781769,217.785263 378.117798,169.132431 400.297852,138.366074 
z"/>
<path fill="#4FA37E" opacity="1.000000" stroke="none" 
	d="
M627.244629,175.085281 
	C630.228271,198.929993 625.219788,220.567688 612.408752,240.293213 
	C604.729004,252.117905 594.537354,261.028473 580.339050,264.045044 
	C563.812256,267.556274 549.901611,262.054718 538.966248,249.791946 
	C510.858673,218.272675 510.567719,165.192795 539.005859,134.246506 
	C562.553406,108.622070 598.970703,113.489014 616.698730,144.123550 
	C622.199097,153.628250 625.350220,163.903992 627.244629,175.085281 
z"/>
<path fill="#4FA37E" opacity="1.000000" stroke="none" 
	d="
M701.536316,307.433624 
	C693.899841,321.064972 683.843018,331.641235 669.521912,337.568634 
	C648.168701,346.406525 625.851196,337.109222 617.300537,315.625610 
	C609.365112,295.687592 610.893066,275.858215 619.030029,256.338776 
	C624.325134,243.636429 632.114014,232.742294 643.378967,224.642365 
	C657.003174,214.846085 671.819702,211.262039 687.594727,218.568039 
	C703.342651,225.861511 709.988525,239.850525 712.190125,256.137878 
	C714.638245,274.248932 710.351929,291.177063 701.536316,307.433624 
z"/>
<path fill="#4FA37E" opacity="1.000000" stroke="none" 
	d="
M325.623169,324.377441 
	C307.416260,304.491364 299.065765,281.618530 302.634552,254.990250 
	C304.841492,238.523163 312.041107,224.872421 328.246307,218.455841 
	C344.584808,211.986481 359.642029,216.121658 373.122650,226.671463 
	C397.576019,245.808426 408.376099,285.741577 397.020172,314.574463 
	C387.411713,338.970398 363.297791,347.791992 340.212555,335.357330 
	C334.899170,332.495300 330.112885,328.929718 325.623169,324.377441 
z"/>
<path fill="#4FA37E" opacity="1.000000" stroke="none" 
	d="
M531.014526,367.006958 
	C538.076904,368.192566 542.546814,364.972076 543.659119,358.104889 
	C544.249939,354.457672 544.012939,350.814850 543.040100,347.209106 
	C541.647583,342.047699 540.842163,336.823761 542.434387,330.471558 
	C538.395264,335.190704 537.626221,339.490540 538.982666,344.457916 
	C540.195251,348.898132 542.041260,353.281952 540.360840,358.114075 
	C538.329712,363.954834 535.187561,365.417572 529.757751,362.708130 
	C525.532959,360.599976 521.878235,357.686615 518.595215,354.360199 
	C513.778748,349.480103 513.406250,344.460907 517.732056,339.213165 
	C527.575928,327.271484 539.951172,320.702637 555.796692,322.780670 
	C563.059143,323.733093 568.866272,327.499634 570.768433,334.935699 
	C571.836365,339.110687 574.198853,340.600708 577.874512,341.458160 
	C581.621582,342.332336 586.956726,342.134338 586.914917,347.440826 
	C586.869690,353.191650 586.827087,359.315643 580.973999,363.467407 
	C576.754517,366.460480 572.486572,367.519684 567.474548,367.389038 
	C561.214844,367.225922 558.575134,370.096741 558.320496,376.598297 
	C558.122253,381.661652 559.960388,386.420258 560.613281,391.367157 
	C561.810486,400.439148 561.945618,409.227386 557.601807,417.690765 
	C554.708557,423.327942 555.132385,429.743713 554.645691,435.823212 
	C554.039795,443.392487 552.174255,451.001740 554.319458,458.665894 
	C555.263855,462.039978 556.579651,464.801086 560.134460,466.192902 
	C563.265564,467.418793 565.673889,469.604095 565.134033,473.372894 
	C564.576111,477.268097 561.103760,477.430481 558.231567,477.933899 
	C549.692810,479.430511 544.348145,476.054047 541.267517,467.812836 
	C537.493774,457.717316 538.009033,447.182068 537.699341,436.714813 
	C537.655579,435.234314 537.585327,433.688629 537.127747,432.305328 
	C536.689636,430.980896 535.303711,431.097412 534.111328,431.250641 
	C532.293518,431.484192 530.792786,432.356079 530.512329,434.203552 
	C529.015076,444.066528 527.142761,453.933258 530.351624,463.844482 
	C531.446472,467.226135 532.739868,470.380829 535.653076,472.680115 
	C538.115784,474.623779 539.012268,477.278351 538.000732,480.271393 
	C536.984619,483.277863 534.221130,483.795837 531.530640,484.118622 
	C519.230469,485.594269 514.141052,481.122772 513.664673,468.816895 
	C513.104553,454.347046 512.356201,439.884491 511.675781,425.122955 
	C510.442261,427.407898 511.834106,430.732635 509.129822,431.716919 
	C506.958740,432.507080 504.570709,431.254852 502.350983,430.587158 
	C499.068390,429.599731 495.816559,428.509949 491.900299,427.654510 
	C497.523529,430.678650 494.928162,433.451813 492.338654,436.184875 
	C490.963806,437.635895 489.500519,439.002563 488.101257,440.430939 
	C479.846100,448.857880 480.552307,457.968292 490.011017,464.804596 
	C492.179565,466.371918 493.792511,468.246307 493.086182,471.084412 
	C492.458374,473.607056 490.230988,474.009094 488.027557,474.416107 
	C478.357605,476.202118 473.949890,473.422241 471.574219,463.973572 
	C471.005737,461.712585 470.664764,459.341797 469.738068,457.232880 
	C466.250122,449.295624 465.913086,441.904297 472.405518,435.151398 
	C473.744965,433.758179 474.210754,431.702789 473.108276,429.040100 
	C468.934631,435.625366 463.200378,440.212219 458.193817,445.492737 
	C452.585449,451.408020 453.092194,461.261200 459.080139,466.866730 
	C460.975708,468.641266 461.858582,470.675842 461.247864,473.118164 
	C460.686096,475.364624 458.623505,475.888092 456.639709,476.409241 
	C446.088043,479.181335 440.893158,475.328461 440.693115,464.563965 
	C440.594116,459.237518 440.861786,453.904938 440.107513,448.591278 
	C439.695679,445.689850 440.301453,442.731964 442.196808,440.554626 
	C448.845520,432.916840 451.814484,424.047485 452.243988,414.040131 
	C452.479614,408.550110 454.545105,403.370300 456.499573,397.619598 
	C443.455872,394.347076 434.884308,386.577362 431.826782,373.458832 
	C430.745148,368.818024 429.724579,364.103333 432.701843,359.682220 
	C435.765594,360.113556 435.509766,362.643494 435.965790,364.333038 
	C438.938660,375.347229 446.663269,381.268738 457.088959,384.210724 
	C461.482910,385.450623 465.971130,385.536804 470.238739,383.323761 
	C478.102936,379.245636 486.498779,377.562775 495.328949,377.715302 
	C500.699677,377.808075 505.954468,376.881500 511.026367,375.141815 
	C514.901428,373.812714 518.457092,371.685516 520.265747,367.930359 
	C522.154968,364.007904 524.313538,363.043488 527.908630,365.682068 
	C528.692017,366.257080 529.730469,366.484467 531.014526,367.006958 
z"/>
</svg>